# 3ds Max Wavefront OBJ Exporter v0.97b - (c)2007 guruware
# File Created: 09.11.2016 17:25:59

mtllib stop_light_extension.mtl

#
# object StopLight_Extension
#

v  -364.8374 -0.0001 8.0205
v  -364.8374 -6.9460 4.0102
v  -0.1217 -6.9460 4.0102
v  -0.1217 -0.0001 8.0205
v  -364.8374 -6.9460 -4.0102
v  -0.1217 -6.9460 -4.0102
v  -364.8374 -0.0001 -8.0205
v  -0.1217 -0.0001 -8.0205
v  -364.8374 6.9459 -4.0102
v  -0.1217 6.9459 -4.0102
v  -364.8374 6.9459 4.0102
v  -0.1217 6.9459 4.0102
v  -378.8063 -6.9460 -4.0102
v  -378.8063 -6.9460 4.0102
v  -378.8063 -0.0001 8.0205
v  -378.8063 6.9459 -4.0102
v  -378.8063 -0.0001 -8.0205
v  -378.8063 6.9459 4.0102
v  -371.7188 -0.0001 14.4611
v  -371.7189 -12.5238 7.2306
v  -371.7189 -12.5238 -7.2306
v  -371.7189 -0.0001 -14.4611
v  -371.7189 12.5237 -7.2306
v  -371.7189 12.5237 7.2306
# 24 vertices

vn -0.0000 -0.0000 1.0000
vn -0.0000 -0.8660 0.5000
vn 0.0000 -0.0000 1.0000
vn 0.0000 -0.8660 -0.5000
vn -0.0000 -0.8660 -0.5000
vn -0.0000 0.0000 -1.0000
vn -0.0000 0.8660 -0.5000
vn -0.0000 0.8660 0.5000
vn -1.0000 0.0000 0.0000
vn 0.6833 0.0000 0.7301
vn 0.6833 -0.6323 0.3651
vn 0.6833 -0.6323 -0.3651
vn 0.6833 0.0000 -0.7301
vn 0.6833 0.6323 -0.3651
vn 0.6833 0.6323 0.3651
vn -0.6725 0.0000 0.7401
vn -0.6725 -0.6409 0.3700
vn -0.6725 -0.6409 -0.3700
vn -0.6725 -0.0000 -0.7401
vn -0.6725 0.0000 -0.7401
vn -0.6725 0.6409 -0.3700
vn -0.6725 0.6409 0.3700
# 22 vertex normals

vt 2.6857 0.9998 0.0000
vt 4.3839 0.9998 0.0000
vt 4.3839 0.9688 0.0000
vt 2.6857 0.9688 0.0000
vt 4.3838 0.9378 0.0000
vt 2.6857 0.9378 0.0000
vt 4.3837 0.9067 0.0000
vt 2.6857 0.9067 0.0000
vt 2.6857 0.9066 0.0000
vt 4.3837 0.9066 0.0000
vt 4.3838 0.9377 0.0000
vt 2.6857 0.9377 0.0000
vt 4.3839 0.9687 0.0000
vt 2.6857 0.9687 0.0000
vt 4.3839 0.9997 0.0000
vt 2.6857 0.9997 0.0000
vt 0.0004 0.9998 0.0000
vt 4.4132 0.9998 0.0000
vt 4.4132 0.9688 0.0000
vt 4.4131 0.9378 0.0000
vt 4.4131 0.9067 0.0000
vt 4.4131 0.9066 0.0000
vt 4.4131 0.9377 0.0000
vt 4.4132 0.9687 0.0000
vt 4.4132 0.9997 0.0000
vt 4.4433 0.9998 0.0000
vt 4.4433 0.9688 0.0000
vt 4.4433 0.9378 0.0000
vt 4.4433 0.9067 0.0000
vt 4.4433 0.9066 0.0000
vt 4.4433 0.9377 0.0000
vt 4.4433 0.9687 0.0000
vt 4.4433 0.9997 0.0000
# 33 texture coords

g StopLight_Extension
usemtl StopLight
s 1
f 1/2/1 2/3/2 3/4/2
f 3/4/2 4/1/3 1/2/1
f 2/3/2 5/5/4 6/6/5
f 6/6/5 3/4/2 2/3/2
f 5/5/4 7/7/6 8/8/6
f 8/8/6 6/6/5 5/5/4
f 7/10/6 9/11/7 10/12/7
f 10/12/7 8/9/6 7/10/6
f 9/11/7 11/13/8 12/14/8
f 12/14/8 10/12/7 9/11/7
f 11/13/8 1/15/1 4/16/3
f 4/16/3 12/14/8 11/13/8
f 13/17/9 14/17/9 15/17/9
f 15/17/9 16/17/9 17/17/9
f 17/17/9 13/17/9 15/17/9
f 18/17/9 16/17/9 15/17/9
s 2
f 19/18/10 20/19/11 2/3/11
f 2/3/11 1/2/10 19/18/10
f 20/19/11 21/20/12 5/5/12
f 5/5/12 2/3/11 20/19/11
f 21/20/12 22/21/13 7/7/13
f 7/7/13 5/5/12 21/20/12
f 22/22/13 23/23/14 9/11/14
f 9/11/14 7/10/13 22/22/13
f 23/23/14 24/24/15 11/13/15
f 11/13/15 9/11/14 23/23/14
f 24/24/15 19/25/10 1/15/10
f 1/15/10 11/13/15 24/24/15
s 4
f 15/26/16 14/27/17 20/19/17
f 20/19/17 19/18/16 15/26/16
f 14/27/17 13/28/18 21/20/18
f 21/20/18 20/19/17 14/27/17
f 13/28/18 17/29/19 22/21/20
f 22/21/20 21/20/18 13/28/18
f 17/30/19 16/31/21 23/23/21
f 23/23/21 22/22/20 17/30/19
f 16/31/21 18/32/22 24/24/22
f 24/24/22 23/23/21 16/31/21
f 18/32/22 15/33/16 19/25/16
f 19/25/16 24/24/22 18/32/22
# 40 faces

